<?xml version="1.0" encoding="UTF-8"?>
<svg version="1.1" xmlns="http://www.w3.org/2000/svg" width="512" height="512">
<path d="M0 0 C1.01790619 0.00215515 2.03581238 0.0043103 3.08456421 0.00653076 C17.69363523 0.05620146 32.02575853 0.30709809 46.375 3.3125 C47.34985352 3.51117676 48.32470703 3.70985352 49.32910156 3.91455078 C97.7109774 14.03517194 141.69928269 35.9516877 177.375 70.3125 C178.3640332 71.26068604 178.3640332 71.26068604 179.37304688 72.22802734 C188.86130305 81.37247479 197.6012044 90.66984009 205.375 101.3125 C206.23306152 102.46355017 207.09113451 103.61459177 207.94921875 104.765625 C213.98736829 112.95680614 219.34595521 121.47054105 224.375 130.3125 C224.73948242 130.94430176 225.10396484 131.57610352 225.47949219 132.22705078 C247.08534998 169.97532572 256.85198095 212.74189997 256.6875 255.9375 C256.68534485 256.95540619 256.6831897 257.97331238 256.68096924 259.02206421 C256.63129854 273.63113523 256.38040191 287.96325853 253.375 302.3125 C253.07698486 303.77478027 253.07698486 303.77478027 252.77294922 305.26660156 C242.65232806 353.6484774 220.7358123 397.63678269 186.375 433.3125 C185.74287598 433.97185547 185.11075195 434.63121094 184.45947266 435.31054688 C175.31502521 444.79880305 166.01765991 453.5387044 155.375 461.3125 C154.22394983 462.17056152 153.07290823 463.02863451 151.921875 463.88671875 C143.73224019 469.92427396 135.22961724 475.30707302 126.375 480.3125 C125.66778809 480.7146875 124.96057617 481.116875 124.23193359 481.53125 C101.09654164 494.5566741 75.92537591 503.30551461 49.9375 508.625 C49.21860596 508.77235596 48.49971191 508.91971191 47.7590332 509.0715332 C33.08339502 511.86090125 18.55831162 512.66142619 3.64770508 512.62817383 C0.70811513 512.6250221 -2.2304558 512.64854926 -5.16992188 512.67382812 C-18.54306192 512.71848737 -31.43916711 511.51301542 -44.625 509.3125 C-46.33055054 509.03031616 -46.33055054 509.03031616 -48.07055664 508.74243164 C-91.33802759 500.97044532 -132.38793216 480.98345309 -165.625 452.3125 C-166.37007813 451.67828125 -167.11515625 451.0440625 -167.8828125 450.390625 C-181.38779833 438.57948485 -194.05918743 425.82889772 -204.625 411.3125 C-205.48149066 410.16255169 -206.33826433 409.01281411 -207.1953125 407.86328125 C-213.23534209 399.67315742 -218.61867614 391.16870382 -223.625 382.3125 C-224.0271875 381.60528809 -224.429375 380.89807617 -224.84375 380.16943359 C-237.8691741 357.03404164 -246.61801461 331.86287591 -251.9375 305.875 C-252.08485596 305.15610596 -252.23221191 304.43721191 -252.3840332 303.6965332 C-255.35789088 288.05024391 -255.99800362 272.57681954 -255.9375 256.6875 C-255.93534485 255.66959381 -255.9331897 254.65168762 -255.93096924 253.60293579 C-255.88129854 238.99386477 -255.63040191 224.66174147 -252.625 210.3125 C-252.42632324 209.33764648 -252.22764648 208.36279297 -252.02294922 207.35839844 C-241.90232806 158.9765226 -219.9858123 114.98821731 -185.625 79.3125 C-184.99287598 78.65314453 -184.36075195 77.99378906 -183.70947266 77.31445312 C-174.56502521 67.82619695 -165.26765991 59.0862956 -154.625 51.3125 C-153.47394983 50.45443848 -152.32290823 49.59636549 -151.171875 48.73828125 C-142.98224019 42.70072604 -134.47961724 37.31792698 -125.625 32.3125 C-124.91778809 31.9103125 -124.21057617 31.508125 -123.48193359 31.09375 C-100.34654164 18.0683259 -75.17537591 9.31948539 -49.1875 4 C-48.46860596 3.85264404 -47.74971191 3.70528809 -47.0090332 3.5534668 C-31.36274391 0.57960912 -15.88931954 -0.06050362 0 0 Z " fill="#7584F1" transform="translate(255.625,-0.3125)"/>
<path d="M0 0 C70.62 0 141.24 0 214 0 C214 8.91 214 17.82 214 27 C229.84 27 245.68 27 262 27 C262 68.91 262 110.82 262 154 C255.51560028 156.94745442 249.10037117 159.84841121 242.5 162.48828125 C240.94628003 163.11423538 239.39256941 163.74021275 237.83886719 164.36621094 C237.0471814 164.68424683 236.25549561 165.00228271 235.43981934 165.32995605 C232.96176822 166.32789639 230.48684666 167.33325338 228.01269531 168.34082031 C214.34586703 173.9014474 214.34586703 173.9014474 207.671875 176.37109375 C197.67905731 180.132996 192.06343124 183.83748168 186 193 C179.46867034 201.06634263 172.03626297 208.52747302 164.19921875 215.32421875 C158.98027506 219.85075913 154.00393297 224.62538214 149.00390625 229.390625 C147.92689453 230.4115625 147.92689453 230.4115625 146.828125 231.453125 C146.1877832 232.06317383 145.54744141 232.67322266 144.88769531 233.30175781 C143 235 143 235 140.79882812 236.37524414 C138.76299293 237.89563836 138.76299293 237.89563836 138.45410156 240.54370117 C138.4331543 241.53345947 138.41220703 242.52321777 138.390625 243.54296875 C138.34470215 244.99352661 138.34470215 244.99352661 138.29785156 246.47338867 C138.28206055 247.69904541 138.26626953 248.92470215 138.25 250.1875 C138.1675 254.085625 138.085 257.98375 138 262 C152.52 262 167.04 262 182 262 C182 272.89 182 283.78 182 295 C190.25 295 198.5 295 207 295 C207 316.45 207 337.9 207 360 C141 360 75 360 7 360 C7 338.55 7 317.1 7 295 C15.25 295 23.5 295 32 295 C32 284.11 32 273.22 32 262 C46.52 262 61.04 262 76 262 C77.38365421 247.07822345 77.38365421 247.07822345 72.015625 233.67578125 C68.9079862 230.61799321 65.49163834 227.99338748 61.95849609 225.44677734 C59.09274164 223.32979145 56.58955693 220.94824414 54 218.5 C50.10194412 214.92040152 50.10194412 214.92040152 46.18652344 211.35986328 C26.1958255 193.27231245 26.1958255 193.27231245 21.72509766 184.49780273 C19.58155173 181.39412054 17.94979612 180.74207144 14.4453125 179.4140625 C13.28990967 178.96522705 12.13450684 178.5163916 10.9440918 178.05395508 C9.67106707 177.57762101 8.39803631 177.1013031 7.125 176.625 C5.81020396 176.11872359 4.49617162 175.61045995 3.18286133 175.1003418 C1.0783944 174.28326149 -1.02652342 173.4675785 -3.1337738 172.65769958 C-11.39857713 169.47970612 -19.60459346 166.15803632 -27.80889893 162.82757568 C-30.29613688 161.81913436 -32.78534381 160.81568499 -35.27490234 159.81298828 C-36.80443526 159.19451715 -38.33389843 158.57587347 -39.86328125 157.95703125 C-40.57230087 157.67216354 -41.2813205 157.38729584 -42.01182556 157.09379578 C-46.88588555 155.11411445 -46.88588555 155.11411445 -48 154 C-48.09608663 152.35509451 -48.12187787 150.70604309 -48.12025452 149.05833435 C-48.12162918 147.98836212 -48.12300385 146.91838989 -48.12442017 145.81599426 C-48.12082489 144.63204575 -48.11722961 143.44809723 -48.11352539 142.22827148 C-48.11367142 140.989422 -48.11381744 139.75057251 -48.1139679 138.47418213 C-48.11338892 135.06730167 -48.10835959 131.66048116 -48.10139394 128.25361133 C-48.09515993 124.69683174 -48.09455656 121.14005142 -48.09336853 117.58326721 C-48.09025535 110.84363418 -48.08204215 104.10401729 -48.07201904 97.36439139 C-48.06085748 89.69341602 -48.05534735 82.02243989 -48.05032361 74.35145843 C-48.03985952 58.567628 -48.02151421 42.78381982 -48 27 C-32.16 27 -16.32 27 0 27 C0 18.09 0 9.18 0 0 Z " fill="#FCB912" transform="translate(149,92)"/>
<path d="M0 0 C7.87470621 6.74974818 7.87470621 6.74974818 11.24507141 10.13154602 C12.00907761 10.89562271 12.7730838 11.6596994 13.5602417 12.44692993 C14.37349915 13.2653537 15.18675659 14.08377747 16.0246582 14.92700195 C16.90028915 15.80409317 17.7759201 16.68118439 18.67808533 17.58485413 C20.56872167 19.47928089 22.4584335 21.37457763 24.34661293 23.27144814 C27.33158359 26.27002036 30.32043599 29.26470349 33.30986023 32.25883484 C39.64705387 38.60708624 45.97998227 44.95958479 52.3125 51.3125 C59.16740013 58.18943651 66.02304224 65.06562395 72.88354939 71.93696755 C75.85658512 74.9149895 78.8271652 77.89543319 81.79589713 80.87774527 C84.06940944 83.16044319 86.34612291 85.43994485 88.62231445 87.7199707 C89.44569305 88.54851562 90.26907166 89.37706055 91.11740112 90.23071289 C91.8673082 90.98069046 92.61721527 91.73066803 93.3898468 92.50337219 C94.04260243 93.15834844 94.69535807 93.81332468 95.36789417 94.48814869 C96.9417583 96.08743608 96.9417583 96.08743608 99 97 C99.49610586 99.41021357 99.8420999 101.70883741 100.10546875 104.1484375 C100.18935349 104.90103851 100.27323822 105.65363953 100.35966492 106.42904663 C101.37400401 116.4732233 101.35090292 126.53971496 101.3125 136.625 C101.31034485 137.64290619 101.3081897 138.66081238 101.30596924 139.70956421 C101.25629854 154.31863523 101.00540191 168.65075853 98 183 C97.70198486 184.46228027 97.70198486 184.46228027 97.39794922 185.95410156 C87.27732806 234.3359774 65.3608123 278.32428269 31 314 C30.36787598 314.65935547 29.73575195 315.31871094 29.08447266 315.99804688 C19.94002521 325.48630305 10.64265991 334.2262044 0 342 C-1.15105017 342.85806152 -2.30209177 343.71613451 -3.453125 344.57421875 C-11.64275981 350.61177396 -20.14538276 355.99457302 -29 361 C-29.70721191 361.4021875 -30.41442383 361.804375 -31.14306641 362.21875 C-54.27845836 375.2441741 -79.44962409 383.99301461 -105.4375 389.3125 C-106.15639404 389.45985596 -106.87528809 389.60721191 -107.6159668 389.7590332 C-122.31023179 392.5519416 -136.85269934 393.34889978 -151.78222656 393.31567383 C-154.73280009 393.31251839 -157.68236212 393.33606238 -160.6328125 393.36132812 C-170.30049227 393.3982484 -179.9053044 393.07489666 -189.515625 391.98046875 C-190.3688031 391.90588943 -191.2219812 391.83131012 -192.10101318 391.75447083 C-197.98358174 390.96348683 -200.48139391 389.03693363 -204.08395386 384.40690613 C-206.28826407 381.63788734 -208.6918789 379.19752673 -211.20092773 376.70141602 C-211.67449613 376.22927296 -212.14806452 375.7571299 -212.63598347 375.27067947 C-213.63272338 374.27778382 -214.63059696 373.28602511 -215.62951469 372.29532051 C-217.21615348 370.72161186 -218.7995005 369.14465405 -220.38209534 367.56687927 C-223.73106528 364.22923506 -227.08400527 360.89559707 -230.4375 357.5625 C-234.35009119 353.67351796 -238.26103436 349.78290684 -242.16783333 345.88810539 C-243.7302623 344.33217189 -245.2956614 342.77926872 -246.8611908 341.22645569 C-247.80921769 340.28205758 -248.75710656 339.3375209 -249.70483398 338.39282227 C-250.53643539 337.56645767 -251.3680368 336.74009308 -252.22483826 335.88868713 C-254 334 -254 334 -254 333 C-188.33 333 -122.66 333 -55 333 C-55 311.55 -55 290.1 -55 268 C-63.25 268 -71.5 268 -80 268 C-80 257.11 -80 246.22 -80 235 C-94.52 235 -109.04 235 -124 235 C-125.19239335 213.17920164 -125.19239335 213.17920164 -122.30078125 207.89453125 C-119.671883 205.6480182 -116.90714578 203.87245966 -114 202 C-111.47688658 199.81817386 -109.08936884 197.50123252 -106.6875 195.1875 C-105.40047869 193.97829253 -104.11141175 192.77125864 -102.8203125 191.56640625 C-102.18383789 190.97102051 -101.54736328 190.37563477 -100.89160156 189.76220703 C-98.51283815 187.54616233 -96.11897797 185.34694806 -93.72290039 183.1496582 C-91.13883775 180.77684962 -88.56843104 178.3897271 -86 176 C-85.25105469 175.30648437 -84.50210938 174.61296875 -83.73046875 173.8984375 C-78.91436507 169.2818174 -75.08644491 164.20582801 -71.2734375 158.734375 C-66.94534814 153.52876924 -61.34390902 151.10347236 -55.19921875 148.6796875 C-54.44574661 148.37612335 -53.69227448 148.0725592 -52.91596985 147.75979614 C-50.50898586 146.79180645 -48.09838114 145.83323606 -45.6875 144.875 C-44.14363084 144.25582977 -42.60000924 143.63604188 -41.05664062 143.015625 C-36.04056949 141.00340001 -31.0201656 139.0019881 -26 137 C-17.75 133.7 -9.5 130.4 -1 127 C-0.505 64.135 -0.505 64.135 0 0 Z " fill="#4253CD" transform="translate(411,119)"/>
<path d="M0 0 C35.31 0 70.62 0 107 0 C107 5.28 107 10.56 107 16 C105.63488281 16.15855469 104.26976562 16.31710938 102.86328125 16.48046875 C81.11611307 19.17500175 60.61974686 26.83959581 46.68603516 44.68261719 C33.73135118 62.64149331 27.50857721 82.71678967 30.5078125 104.7265625 C34.31005905 124.43705899 43.9279108 142.80249945 60.12890625 155.0859375 C68.37952455 160.5863497 77.34476248 165.54905509 87 168 C87.7115625 168.19078125 88.423125 168.3815625 89.15625 168.578125 C95.17639453 170.06196344 100.68858676 170.42623516 107 171 C107 201.03 107 231.06 107 262 C131.75 262 156.5 262 182 262 C182 272.89 182 283.78 182 295 C190.25 295 198.5 295 207 295 C207 316.45 207 337.9 207 360 C141 360 75 360 7 360 C7 338.55 7 317.1 7 295 C15.25 295 23.5 295 32 295 C32 284.11 32 273.22 32 262 C46.52 262 61.04 262 76 262 C77.38365421 247.07822345 77.38365421 247.07822345 72.015625 233.67578125 C68.9079862 230.61799321 65.49163834 227.99338748 61.95849609 225.44677734 C59.09274164 223.32979145 56.58955693 220.94824414 54 218.5 C50.10194412 214.92040152 50.10194412 214.92040152 46.18652344 211.35986328 C26.1958255 193.27231245 26.1958255 193.27231245 21.72509766 184.49780273 C19.58155173 181.39412054 17.94979612 180.74207144 14.4453125 179.4140625 C13.28990967 178.96522705 12.13450684 178.5163916 10.9440918 178.05395508 C9.67106707 177.57762101 8.39803631 177.1013031 7.125 176.625 C5.81020396 176.11872359 4.49617162 175.61045995 3.18286133 175.1003418 C1.0783944 174.28326149 -1.02652342 173.4675785 -3.1337738 172.65769958 C-11.39857713 169.47970612 -19.60459346 166.15803632 -27.80889893 162.82757568 C-30.29613688 161.81913436 -32.78534381 160.81568499 -35.27490234 159.81298828 C-36.80443526 159.19451715 -38.33389843 158.57587347 -39.86328125 157.95703125 C-40.57230087 157.67216354 -41.2813205 157.38729584 -42.01182556 157.09379578 C-46.88588555 155.11411445 -46.88588555 155.11411445 -48 154 C-48.09608663 152.35509451 -48.12187787 150.70604309 -48.12025452 149.05833435 C-48.12162918 147.98836212 -48.12300385 146.91838989 -48.12442017 145.81599426 C-48.12082489 144.63204575 -48.11722961 143.44809723 -48.11352539 142.22827148 C-48.11367142 140.989422 -48.11381744 139.75057251 -48.1139679 138.47418213 C-48.11338892 135.06730167 -48.10835959 131.66048116 -48.10139394 128.25361133 C-48.09515993 124.69683174 -48.09455656 121.14005142 -48.09336853 117.58326721 C-48.09025535 110.84363418 -48.08204215 104.10401729 -48.07201904 97.36439139 C-48.06085748 89.69341602 -48.05534735 82.02243989 -48.05032361 74.35145843 C-48.03985952 58.567628 -48.02151421 42.78381982 -48 27 C-32.16 27 -16.32 27 0 27 C0 18.09 0 9.18 0 0 Z " fill="#FECD00" transform="translate(149,92)"/>
<path d="M0 0 C1.51803756 1.31276036 3.01935951 2.64520056 4.5 4 C5.18191406 4.59039062 5.86382812 5.18078125 6.56640625 5.7890625 C20.47263167 18.57952424 28.55140969 37.78806079 29.71484375 56.4453125 C30.07884182 70.39371872 27.76391258 83.45501344 21.5 96 C21.01917969 96.97324219 20.53835938 97.94648438 20.04296875 98.94921875 C10.24378625 117.18857304 -5.88101003 129.36257262 -25.1796875 136.328125 C-46.62673581 142.55610222 -67.48090776 139.44936906 -86.96484375 129.01171875 C-91.12906011 126.69220112 -94.88394614 124.106519 -98.5 121 C-99.1496875 120.49210938 -99.799375 119.98421875 -100.46875 119.4609375 C-115.46852321 107.28804462 -123.91552415 87.8331712 -126.5 69 C-128.12357816 47.40641051 -121.84526406 26.89115472 -107.66796875 10.328125 C-79.49022959 -19.93121291 -33.40937851 -26.03062007 0 0 Z " fill="#FAD07E" transform="translate(304.5,124)"/>
<path d="M0 0 C66 0 132 0 200 0 C200 21.45 200 42.9 200 65 C134 65 68 65 0 65 C0 43.55 0 22.1 0 0 Z " fill="#FE432E" transform="translate(156,387)"/>
<path d="M0 0 C0 4.29 0 8.58 0 13 C-1.03898437 13.21914062 -2.07796875 13.43828125 -3.1484375 13.6640625 C-11.64439872 15.55420731 -18.96277888 17.62398163 -26 23 C-26.63164062 23.47824219 -27.26328125 23.95648438 -27.9140625 24.44921875 C-36.9343702 32.33702086 -39.93835049 43.6609277 -42 55 C-32.1 55 -22.2 55 -12 55 C-11.67 53.35 -11.34 51.7 -11 50 C-7.73684211 45.36842105 -7.73684211 45.36842105 -5 44 C-0.26906912 43.42282643 3.14717343 43.56583375 7.4375 45.75 C10.87522981 48.76849447 11.78853713 50.37878464 12.375 54.875 C11.74246138 60.14615514 9.545363 62.75295074 5.53125 65.9921875 C4.5928125 66.71664062 3.654375 67.44109375 2.6875 68.1875 C-6.63575708 75.60881263 -12.59182818 86.09749 -14.4609375 97.9140625 C-14.7064968 100.27010448 -14.86290818 102.63516618 -15 105 C-10.05 105 -5.1 105 0 105 C0 108.3 0 111.6 0 115 C-4.95 115 -9.9 115 -15 115 C-15 123.25 -15 131.5 -15 140 C-10.05 140 -5.1 140 0 140 C0 144.95 0 149.9 0 155 C-18.051977 155.98914942 -36.31659008 148.75529307 -50 137 C-50.6496875 136.49210938 -51.299375 135.98421875 -51.96875 135.4609375 C-66.96852321 123.28804462 -75.41552415 103.8331712 -78 85 C-79.62357816 63.40641051 -73.34526406 42.89115472 -59.16796875 26.328125 C-43.10665984 9.08030498 -23.87643444 -0.36732976 0 0 Z " fill="#FFE79A" transform="translate(256,108)"/>
<path d="M0 0 C15.84 0 31.68 0 48 0 C48.04898438 6.91195312 48.09796875 13.82390625 48.1484375 20.9453125 C48.18386035 25.34767009 48.21984121 29.7500092 48.2578125 34.15234375 C48.31791054 41.12611111 48.37604273 48.09985286 48.421875 55.07373047 C48.45899311 60.70187049 48.50542186 66.32986646 48.55806351 71.95788193 C48.57646754 74.0954216 48.59162595 76.23299198 48.60334396 78.37057877 C48.66791168 89.75105453 48.8857845 100.78229569 51 112 C51.20109375 113.0740358 51.20109375 113.0740358 51.40625 114.16976929 C53.9252553 126.31597747 58.98206232 138.22427171 65.25 148.90625 C67 152 67 152 67 154 C60.70668289 151.98635723 54.57544442 149.70038408 48.4609375 147.19921875 C47.57701324 146.84036087 46.69308899 146.48150299 45.78237915 146.11177063 C42.97884279 144.97297391 40.17687532 143.83037657 37.375 142.6875 C34.60231214 141.55947501 31.82930246 140.43224455 29.05621338 139.3052063 C27.25495563 138.57286564 25.45396694 137.83986285 23.65325928 137.10617065 C19.56049817 135.4397867 15.46486117 133.78223667 11.35644531 132.15478516 C10.65347321 131.87609085 9.9505011 131.59739655 9.22622681 131.31025696 C7.36092123 130.57266062 5.49423355 129.83856216 3.62744141 129.10473633 C1 128 1 128 0 127 C-0.09608663 125.35509451 -0.12187787 123.70604309 -0.12025452 122.05833435 C-0.12162918 120.98836212 -0.12300385 119.91838989 -0.12442017 118.81599426 C-0.12082489 117.63204575 -0.11722961 116.44809723 -0.11352539 115.22827148 C-0.11367142 113.989422 -0.11381744 112.75057251 -0.1139679 111.47418213 C-0.11338892 108.06730167 -0.10835959 104.66048116 -0.10139394 101.25361133 C-0.09515993 97.69683174 -0.09455656 94.14005142 -0.09336853 90.58326721 C-0.09025535 83.84363418 -0.08204215 77.10401729 -0.07201904 70.36439139 C-0.06085748 62.69341602 -0.05534735 55.02243989 -0.05032361 47.35145843 C-0.03985952 31.567628 -0.02151421 15.78381982 0 0 Z " fill="#FBB913" transform="translate(101,119)"/>
<path d="M0 0 C15.84 0 31.68 0 48 0 C48 41.91 48 83.82 48 127 C41.4928989 129.95777323 35.05155185 132.86853065 28.4296875 135.5234375 C27.66431671 135.83270172 26.89894592 136.14196594 26.11038208 136.46060181 C23.69948623 137.43431243 21.28731774 138.40481816 18.875 139.375 C16.49407315 140.33476855 14.11343082 141.29523778 11.73297119 142.25616455 C10.16337948 142.88961372 8.59351693 143.52239224 7.02337646 144.15447998 C3.04060964 145.76029844 -0.93395052 147.3833025 -4.89746094 149.03613281 C-5.6803952 149.36199371 -6.46332947 149.68785461 -7.26998901 150.02359009 C-8.76129713 150.64563081 -10.25137117 151.27064086 -11.74002075 151.89901733 C-16.77930264 154 -16.77930264 154 -19 154 C-17.49743959 150.02524661 -15.65110619 146.32861831 -13.6875 142.5625 C-5.23981308 125.93359386 -0.91287223 108.52417411 -0.79467773 89.91210938 C-0.77982834 88.44732147 -0.77982834 88.44732147 -0.76467896 86.95294189 C-0.73328555 83.74990194 -0.70839482 80.5468472 -0.68359375 77.34375 C-0.66300505 75.11315543 -0.6420081 72.88256459 -0.62062073 70.65197754 C-0.56559785 64.79951005 -0.51610181 58.94700851 -0.46777344 53.09448242 C-0.40854907 46.06254375 -0.3424306 39.0306669 -0.27747345 31.9987793 C-0.1797131 21.3325575 -0.09068666 10.66629485 0 0 Z " fill="#FDA201" transform="translate(363,119)"/>
<path d="M0 0 C33 0 66 0 100 0 C100 21.45 100 42.9 100 65 C67 65 34 65 0 65 C0 43.55 0 22.1 0 0 Z " fill="#FE6C52" transform="translate(156,387)"/>
<path d="M0 0 C8.06927071 7.31864087 12.74905504 17.21575454 13.6875 27.94921875 C14.07946281 40.06331938 11.17507904 49.9942882 3.375 59.375 C-0.32101039 63.04489017 -4.13428198 66.4027926 -8.5 69.25 C-11.71147876 72.12565805 -11.71147876 72.12565805 -13.625 81.375 C-23.525 81.375 -33.425 81.375 -43.625 81.375 C-43.625 68.03678861 -40.10420404 57.03905129 -30.5703125 47.26953125 C-27.73287736 44.75866883 -24.76446231 42.48111262 -21.75 40.1875 C-18.55006485 37.45814355 -17.7551593 35.59849742 -17.3125 31.4375 C-17.67171227 27.91721975 -18.46120524 26.15702183 -20.625 23.375 C-24.80291503 20.8361817 -28.8553668 20.54031419 -33.625 21.375 C-37.75280579 24.44889793 -38.67146825 26.49117061 -40.625 31.375 C-50.525 31.375 -60.425 31.375 -70.625 31.375 C-69.41807823 18.09886048 -66.02622594 8.37450311 -56.08203125 -0.72265625 C-38.37657005 -14.4310181 -17.57375922 -13.58150211 0 0 Z " fill="#FE9500" transform="translate(284.625,131.625)"/>
<path d="M0 0 C3.68525729 0.63131954 6.92375124 1.65585949 10.38183594 3.06958008 C11.43352966 3.49705032 12.48522339 3.92452057 13.56878662 4.36494446 C14.69593079 4.8284581 15.82307495 5.29197174 16.984375 5.76953125 C18.15454163 6.2469426 19.32470825 6.72435394 20.53033447 7.2162323 C23.0057989 8.2271318 25.48052311 9.23964116 27.95410156 10.25512695 C31.10034679 11.54672743 34.24861271 12.83330483 37.39770126 14.11795521 C40.42733568 15.35416419 43.45586671 16.59306652 46.484375 17.83203125 C47.60342224 18.2894722 48.72246948 18.74691315 49.87542725 19.21821594 C52.92131912 20.46864215 55.96250285 21.72932921 59 23 C59.89055084 23.37184418 60.78110168 23.74368835 61.69863892 24.12680054 C62.50497772 24.47256134 63.31131653 24.81832214 64.14208984 25.17456055 C64.83845551 25.47162399 65.53482117 25.76868744 66.25228882 26.07475281 C68.96387608 27.5102809 70.27489729 29.42758607 71.875 32 C78.96510236 42.53706912 87.91036366 51.04299964 97.32861328 59.48583984 C99.16158026 61.14638048 100.97140894 62.82963678 102.77734375 64.51953125 C103.4221167 65.12216797 104.06688965 65.72480469 104.73120117 66.34570312 C106.03150494 67.56990025 107.32472381 68.80166823 108.6105957 70.04101562 C111.30876671 72.62001009 113.76499742 74.85483306 116.953125 76.82421875 C119.81610499 78.61133047 121.17539946 80.16432706 123 83 C123.49072266 85.78173828 123.49072266 85.78173828 123.5390625 88.8203125 C123.55912354 89.90779785 123.57918457 90.9952832 123.59985352 92.11572266 C123.54496137 97.08902236 123.32369866 102.03781241 123 107 C117.11924351 108.68235625 111.8464866 109.07801219 106 107 C97.23383772 101.33414158 90.06501923 93.12354056 82.87181926 85.62844777 C79.97700598 82.63040627 77.03372175 79.6806992 74.09559631 76.72520447 C68.55038729 71.13249405 63.05030441 65.49751175 57.56512123 59.84598678 C51.31534496 53.41145826 45.01348162 47.02897779 38.7081908 40.64891827 C29.43175386 31.2588894 20.17368652 21.85067902 10.96756554 12.39166069 C9.97020587 11.36730029 8.9720299 10.34373399 7.97300339 9.32099915 C6.61609305 7.93124489 5.26282102 6.53794101 3.90977478 5.14442444 C3.15017425 4.36366578 2.39057371 3.58290712 1.60795498 2.77848911 C0 1 0 1 0 0 Z " fill="#4354CD" transform="translate(102,247)"/>
<path d="M0 0 C24.75 0 49.5 0 75 0 C75 10.89 75 21.78 75 33 C50.25 33 25.5 33 0 33 C0 22.11 0 11.22 0 0 Z " fill="#FEA201" transform="translate(256,354)"/>
<path d="M0 0 C24.75 0 49.5 0 75 0 C75 10.89 75 21.78 75 33 C50.25 33 25.5 33 0 33 C0 22.11 0 11.22 0 0 Z " fill="#FBB913" transform="translate(181,354)"/>
<path d="M0 0 C5.94 0 11.88 0 18 0 C18.01981934 1.970896 18.03963867 3.94179199 18.06005859 5.97241211 C18.12839513 12.55420481 18.20520566 19.13585813 18.28752708 25.7174902 C18.33703869 29.69989116 18.38336409 33.68227118 18.421875 37.66479492 C18.45930884 41.52289041 18.50580724 45.38078826 18.55806351 49.2387104 C18.57630468 50.69552635 18.59151832 52.15238413 18.60334396 53.60926628 C18.69214912 64.19197083 19.58619397 74.51224014 21 85 C13.53453778 83.00813047 7.14238137 80.24653699 0 77 C0 51.59 0 26.18 0 0 Z " fill="#4353CC" transform="translate(131,149)"/>
<path d="M0 0 C5.94 0 11.88 0 18 0 C18 25.41 18 50.82 18 77 C-1 85 -1 85 -3 85 C-2.79064316 83.66774635 -2.79064316 83.66774635 -2.57705688 82.30857849 C-1.1496158 72.57094232 -0.66276072 63.05448788 -0.5859375 53.22265625 C-0.56716544 51.67466775 -0.54758789 50.12668884 -0.5272522 48.57872009 C-0.47656109 44.55943531 -0.4366041 40.54011756 -0.39910889 36.52069092 C-0.35866724 32.39717894 -0.30776112 28.27379646 -0.2578125 24.15039062 C-0.16180249 16.10034366 -0.07813609 8.0502403 0 0 Z " fill="#4353CC" transform="translate(363,149)"/>
<path d="M0 0 C0 0.33 0 0.66 0 1 C-1.98 1 -3.96 1 -6 1 C-6 10.57 -6 20.14 -6 30 C-5.34 30.33 -4.68 30.66 -4 31 C-4.60328125 31.07476562 -5.2065625 31.14953125 -5.828125 31.2265625 C-10.3672 31.97331355 -12.42241089 32.3213328 -15.5 35.9375 C-17.05210149 38.93413357 -17.05210149 38.93413357 -18 42 C-27.9 42 -37.8 42 -48 42 C-46.79307823 28.72386048 -43.40122594 18.99950311 -33.45703125 9.90234375 C-22.71127182 1.58249503 -13.28148349 -0.3984445 0 0 Z " fill="#FEAA01" transform="translate(262,121)"/>
<path d="M0 0 C9.9 0 19.8 0 30 0 C30 8.25 30 16.5 30 25 C20.1 25 10.2 25 0 25 C0 16.75 0 8.5 0 0 Z " fill="#FF9500" transform="translate(241,223)"/>
<path d="M0 0 C0 11.22 0 22.44 0 34 C4.95 34 9.9 34 15 34 C15 34.33 15 34.66 15 35 C5.1 35 -4.8 35 -15 35 C-15 21.70582952 -11.46660865 11.19032249 -2.34765625 1.1875 C-1 0 -1 0 0 0 Z " fill="#FEAB06" transform="translate(256,178)"/>
<path d="M0 0 C4.95 0 9.9 0 15 0 C15 8.25 15 16.5 15 25 C10.05 25 5.1 25 0 25 C0 16.75 0 8.5 0 0 Z " fill="#FFAA00" transform="translate(241,223)"/>
<path d="M0 0 C7.88861133 6.76166686 7.88861133 6.76166686 11.62109375 10.48828125 C12.41064453 11.27654297 13.20019531 12.06480469 14.01367188 12.87695312 C14.81353516 13.68068359 15.61339844 14.48441406 16.4375 15.3125 C17.26443359 16.13556641 18.09136719 16.95863281 18.94335938 17.80664062 C19.72388672 18.58845703 20.50441406 19.37027344 21.30859375 20.17578125 C22.01814209 20.88645752 22.72769043 21.59713379 23.45874023 22.3293457 C25 24 25 24 25 25 C16.75 25 8.5 25 0 25 C0 16.75 0 8.5 0 0 Z " fill="#4354CF" transform="translate(364,93)"/>
<path d="M0 0 C6.21487057 1.03581176 7.16063122 1.50245372 11 6 C12.43304064 8.86608129 12.30644155 10.81300783 12 14 C9.45100581 18.80387367 6.30601592 21.81729258 2 25 C1.34 25 0.68 25 0 25 C0 16.75 0 8.5 0 0 Z " fill="#FAD07C" transform="translate(256,152)"/>
</svg>
