<?xml version="1.0" encoding="UTF-8"?>
<svg version="1.1" xmlns="http://www.w3.org/2000/svg" width="96" height="96">
<path d="M0 0 C2.375 1 2.375 1 4 3 C4.22042969 4.25683594 4.44085938 5.51367188 4.66796875 6.80859375 C5.67279673 11.02524855 7.33638451 12.68378335 10.95166016 14.95458984 C11.93465088 15.50300537 11.93465088 15.50300537 12.9375 16.0625 C13.6082959 16.4538916 14.2790918 16.8452832 14.97021484 17.24853516 C20.15894873 20.05121796 23.90720648 20.52143173 29.75 19.34765625 C32 19 32 19 35.125 20.3125 C37.23540092 22.21186082 37.90737539 23.21345003 38.23828125 26.0234375 C38.43951377 32.39933117 38.43951377 32.39933117 36.125 35.5625 C34 37 34 37 32 37 C32 44.26 32 51.52 32 59 C33.32 59.66 34.64 60.32 36 61 C38.39286884 63.39286884 38.32050616 64.09447094 38.375 67.375 C38.28881712 70.52827945 38.1431273 71.77099631 36.4375 74.5 C33.22198378 76.47877921 30.75998708 76.80551791 27 77 C26.09378906 76.75894531 25.18757813 76.51789063 24.25390625 76.26953125 C19.69209236 75.89166191 17.1245442 77.52518065 13.3125 79.875 C12.30461426 80.48323608 12.30461426 80.48323608 11.27636719 81.10375977 C7.46668044 83.56714839 5.09249711 85.4258294 3.75 89.9375 C3.64171875 90.66839844 3.5334375 91.39929688 3.421875 92.15234375 C3 94 3 94 0 96 C-3.94552058 96.31313655 -6.73665745 96.53193371 -10.375 95 C-12 93 -12 93 -12.6328125 89.19140625 C-13.4535319 85.74407299 -14.42223686 84.22922745 -17.34375 82.21484375 C-18.70997191 81.42170317 -20.09684712 80.66330734 -21.5 79.9375 C-22.58051636 79.3504126 -22.58051636 79.3504126 -23.68286133 78.75146484 C-28.7481523 76.17996901 -32.367896 75.37054454 -38.0078125 76.65234375 C-40 77 -40 77 -43.0625 75.6875 C-45.23619896 73.79427833 -45.9027182 72.82609788 -46.23828125 69.9765625 C-46.43951377 63.60066883 -46.43951377 63.60066883 -44.125 60.4375 C-42 59 -42 59 -40 59 C-40 51.74 -40 44.48 -40 37 C-41.32 36.34 -42.64 35.68 -44 35 C-46.39286884 32.60713116 -46.32050616 31.90552906 -46.375 28.625 C-46.28881712 25.47172055 -46.1431273 24.22900369 -44.4375 21.5 C-41.23685573 19.53037276 -38.7381527 19.19674488 -35 19 C-33.90365234 19.36158203 -33.90365234 19.36158203 -32.78515625 19.73046875 C-28.47275068 20.14779832 -25.560692 18.21740024 -21.875 16.125 C-21.15159424 15.71950928 -20.42818848 15.31401855 -19.68286133 14.89624023 C-15.6800763 12.49049089 -13.06326334 10.73705499 -11.6875 6.0625 C-11.58824219 5.33160156 -11.48898438 4.60070312 -11.38671875 3.84765625 C-10.29619607 -1.36261879 -4.15265676 -0.51174154 0 0 Z M-21.5 21 C-22.18964844 21.36222656 -22.87929688 21.72445313 -23.58984375 22.09765625 C-27.49216312 24.29340742 -27.49216312 24.29340742 -29.7734375 27.9921875 C-30.19118045 29.99295635 -30.59604861 31.99640112 -31 34 C-32.00208496 34.71796753 -32.00208496 34.71796753 -33.02441406 35.45043945 C-35.20610617 36.81905236 -35.20610617 36.81905236 -35.45410156 39.17651367 C-35.4331543 39.99869385 -35.41220703 40.82087402 -35.390625 41.66796875 C-35.37773438 42.56064453 -35.36484375 43.45332031 -35.3515625 44.37304688 C-35.31804688 45.30181641 -35.28453125 46.23058594 -35.25 47.1875 C-35.23195313 48.12787109 -35.21390625 49.06824219 -35.1953125 50.03710938 C-35.1481655 52.35909889 -35.08238231 54.6790369 -35 57 C-32.03887907 53.47533972 -29.69254727 49.91411904 -27.46875 45.88671875 C-26.99205872 45.02685112 -26.99205872 45.02685112 -26.5057373 44.14961243 C-25.83804813 42.94316172 -25.17259213 41.73547263 -24.50927734 40.52661133 C-23.50715985 38.70054672 -22.49837516 36.87830293 -21.48828125 35.05664062 C-18.19424536 29.09947805 -14.98056877 23.12081086 -12 17 C-15.55407793 17 -18.47979947 19.27820344 -21.5 21 Z M4 17 C8.30472447 26.19204322 13.20387465 34.98191213 18.3125 43.75 C18.93527832 44.82185547 19.55805664 45.89371094 20.19970703 46.99804688 C23.17957916 52.31515719 23.17957916 52.31515719 27 57 C27.14584064 53.77131254 27.23424106 50.54347635 27.3125 47.3125 C27.35439453 46.40048828 27.39628906 45.48847656 27.43945312 44.54882812 C27.62019882 38.86000776 27.62019882 38.86000776 24.54296875 34.23046875 C23.70378906 33.49441406 22.86460938 32.75835937 22 32 C21.82791016 30.51113281 21.82791016 30.51113281 21.65234375 28.9921875 C20.90266404 25.55353687 20.49696647 25.29714327 17.69140625 23.4453125 C16.32691056 22.65123159 14.94993307 21.87828776 13.5625 21.125 C12.52125977 20.52171875 12.52125977 20.52171875 11.45898438 19.90625 C7.95069904 17.74348568 7.95069904 17.74348568 4 17 Z M-7 18 C-7.44279297 18.80518066 -7.88558594 19.61036133 -8.34179688 20.43994141 C-10.02578701 23.50082566 -11.71081264 26.56113547 -13.39648438 29.62109375 C-14.11823758 30.93174648 -14.83960752 32.24261036 -15.56054688 33.55371094 C-16.2610164 34.82746977 -16.96210928 36.10088601 -17.66381836 37.3739624 C-18.36826217 38.65279447 -19.07089436 39.93262612 -19.77172852 41.21343994 C-21.57892595 44.49983034 -23.43325405 47.74242681 -25.38671875 50.94433594 C-25.76735474 51.57753754 -26.14799072 52.21073914 -26.54016113 52.86312866 C-27.59633735 54.61174546 -28.66974224 56.34992227 -29.74414062 58.08740234 C-30.36579102 59.52913818 -30.36579102 59.52913818 -31 61 C-30.34 62.32 -29.68 63.64 -29 65 C-12.5 65 4 65 21 65 C23.39439833 61.3750066 23.39439833 61.3750066 22.31591797 58.85961914 C21.87908691 58.09254639 21.44225586 57.32547363 20.9921875 56.53515625 C20.50524414 55.66197754 20.01830078 54.78879883 19.51660156 53.88916016 C18.97487305 52.9563623 18.43314453 52.02356445 17.875 51.0625 C17.33327148 50.10134277 16.79154297 49.14018555 16.23339844 48.14990234 C14.50432772 45.09089221 12.75299162 42.04535365 11 39 C9.83991751 36.96033355 8.6810419 34.91998015 7.5234375 32.87890625 C4.6997854 27.90912938 1.85729592 22.95050252 -1 18 C-2.98 18 -4.96 18 -7 18 Z M-28 70 C-19.49322104 76.86463877 -19.49322104 76.86463877 -9.42578125 80.16015625 C-7.15888852 79.86306171 -7.15888852 79.86306171 -5.1328125 79.26953125 C-3 79 -3 79 -0.296875 80.25 C4.10641988 81.25169741 5.8224179 79.94127524 9.5703125 77.66992188 C10.33085938 77.18072266 11.09140625 76.69152344 11.875 76.1875 C12.65875 75.70990234 13.4425 75.23230469 14.25 74.74023438 C17.1724831 72.94111985 17.1724831 72.94111985 20 71 C20 70.67 20 70.34 20 70 C4.16 70 -11.68 70 -28 70 Z " fill="#DF33A6" transform="translate(52,0)"/>
</svg>
